<mxfile host="65bd71144e">
    <diagram id="ChXilcV_p1pYTyLqrAH8" name="Page-1">
        <mxGraphModel dx="1355" dy="-1405" grid="1" gridSize="10" guides="1" tooltips="1" connect="1" arrows="1" fold="1" page="1" pageScale="1" pageWidth="850" pageHeight="1100" math="0" shadow="0">
            <root>
                <mxCell id="0"/>
                <mxCell id="1" parent="0"/>
                <mxCell id="2" value="" style="endArrow=none;html=1;rounded=0;strokeColor=default;strokeWidth=3;" edge="1" parent="1" source="25">
                    <mxGeometry width="50" height="50" relative="1" as="geometry">
                        <mxPoint x="460" y="2541" as="sourcePoint"/>
                        <mxPoint x="510" y="2491" as="targetPoint"/>
                    </mxGeometry>
                </mxCell>
                <mxCell id="3" value="" style="endArrow=none;html=1;rounded=0;strokeColor=default;strokeWidth=3;" edge="1" parent="1" source="26">
                    <mxGeometry width="50" height="50" relative="1" as="geometry">
                        <mxPoint x="719.5" y="3181" as="sourcePoint"/>
                        <mxPoint x="719.5" y="2491" as="targetPoint"/>
                    </mxGeometry>
                </mxCell>
                <mxCell id="4" value="" style="endArrow=none;html=1;rounded=0;strokeColor=default;strokeWidth=3;exitX=0.583;exitY=0.167;exitDx=0;exitDy=0;exitPerimeter=0;" edge="1" parent="1" source="29">
                    <mxGeometry width="50" height="50" relative="1" as="geometry">
                        <mxPoint x="1370" y="3181" as="sourcePoint"/>
                        <mxPoint x="1370" y="2491" as="targetPoint"/>
                    </mxGeometry>
                </mxCell>
                <mxCell id="5" value="" style="endArrow=none;html=1;rounded=0;strokeColor=default;strokeWidth=3;" edge="1" parent="1" source="28">
                    <mxGeometry width="50" height="50" relative="1" as="geometry">
                        <mxPoint x="1139.5" y="3181" as="sourcePoint"/>
                        <mxPoint x="1139.5" y="2491" as="targetPoint"/>
                    </mxGeometry>
                </mxCell>
                <mxCell id="6" value="" style="endArrow=none;html=1;rounded=0;strokeColor=default;strokeWidth=3;" edge="1" parent="1" source="27">
                    <mxGeometry width="50" height="50" relative="1" as="geometry">
                        <mxPoint x="919.5" y="3181" as="sourcePoint"/>
                        <mxPoint x="919.5" y="2491" as="targetPoint"/>
                    </mxGeometry>
                </mxCell>
                <mxCell id="7" value="User" style="rounded=1;whiteSpace=wrap;html=1;fontSize=13;fontStyle=1;strokeWidth=3;" vertex="1" parent="1">
                    <mxGeometry x="450" y="2431" width="120" height="60" as="geometry"/>
                </mxCell>
                <mxCell id="8" value="API GATEWAY" style="rounded=1;whiteSpace=wrap;html=1;fontSize=13;fontStyle=1;strokeWidth=3;" vertex="1" parent="1">
                    <mxGeometry x="660" y="2431" width="120" height="60" as="geometry"/>
                </mxCell>
                <mxCell id="9" value="Wallet Manager&amp;nbsp;" style="rounded=1;whiteSpace=wrap;html=1;fontSize=13;fontStyle=1;strokeWidth=3;" vertex="1" parent="1">
                    <mxGeometry x="1080" y="2431" width="120" height="60" as="geometry"/>
                </mxCell>
                <mxCell id="10" value="Gift Card Manager" style="rounded=1;whiteSpace=wrap;html=1;fontSize=13;fontStyle=1;strokeWidth=3;" vertex="1" parent="1">
                    <mxGeometry x="1300" y="2431" width="120" height="60" as="geometry"/>
                </mxCell>
                <mxCell id="11" value="Profile Manager" style="rounded=1;whiteSpace=wrap;html=1;fontSize=13;fontStyle=1;strokeWidth=3;" vertex="1" parent="1">
                    <mxGeometry x="860" y="2431" width="120" height="60" as="geometry"/>
                </mxCell>
                <mxCell id="12" value="" style="shape=flexArrow;endArrow=classic;html=1;rounded=0;strokeWidth=2;fillColor=#000000;" edge="1" parent="1">
                    <mxGeometry width="50" height="50" relative="1" as="geometry">
                        <mxPoint x="510" y="2551" as="sourcePoint"/>
                        <mxPoint x="720" y="2551" as="targetPoint"/>
                    </mxGeometry>
                </mxCell>
                <mxCell id="13" value="" style="shape=flexArrow;endArrow=classic;html=1;rounded=0;strokeWidth=2;fillColor=#000000;" edge="1" parent="1">
                    <mxGeometry width="50" height="50" relative="1" as="geometry">
                        <mxPoint x="720" y="2581" as="sourcePoint"/>
                        <mxPoint x="920" y="2581" as="targetPoint"/>
                    </mxGeometry>
                </mxCell>
                <mxCell id="14" value="" style="shape=flexArrow;endArrow=classic;html=1;rounded=0;strokeWidth=2;fillColor=#000000;" edge="1" parent="1">
                    <mxGeometry width="50" height="50" relative="1" as="geometry">
                        <mxPoint x="920" y="2651" as="sourcePoint"/>
                        <mxPoint x="720" y="2651" as="targetPoint"/>
                    </mxGeometry>
                </mxCell>
                <mxCell id="15" value="" style="shape=flexArrow;endArrow=classic;html=1;rounded=0;strokeWidth=2;fillColor=#000000;" edge="1" parent="1">
                    <mxGeometry width="50" height="50" relative="1" as="geometry">
                        <mxPoint x="715" y="2910" as="sourcePoint"/>
                        <mxPoint x="505" y="2910" as="targetPoint"/>
                    </mxGeometry>
                </mxCell>
                <mxCell id="16" value="&lt;b&gt;&lt;font style=&quot;font-size: 14px;&quot;&gt;1&lt;/font&gt;&lt;/b&gt;" style="ellipse;whiteSpace=wrap;html=1;aspect=fixed;fillColor=none;strokeWidth=2;" vertex="1" parent="1">
                    <mxGeometry x="600" y="2501" width="40" height="40" as="geometry"/>
                </mxCell>
                <mxCell id="17" value="&lt;b&gt;&lt;font style=&quot;font-size: 14px;&quot;&gt;4&lt;/font&gt;&lt;/b&gt;" style="ellipse;whiteSpace=wrap;html=1;aspect=fixed;fillColor=none;strokeWidth=2;" vertex="1" parent="1">
                    <mxGeometry x="800" y="2700" width="40" height="40" as="geometry"/>
                </mxCell>
                <mxCell id="18" value="&lt;b&gt;&lt;font style=&quot;font-size: 14px;&quot;&gt;3&lt;/font&gt;&lt;/b&gt;" style="ellipse;whiteSpace=wrap;html=1;aspect=fixed;fillColor=none;strokeWidth=2;" vertex="1" parent="1">
                    <mxGeometry x="800" y="2601" width="40" height="40" as="geometry"/>
                </mxCell>
                <mxCell id="19" value="&lt;b&gt;&lt;font style=&quot;font-size: 14px;&quot;&gt;2&lt;/font&gt;&lt;/b&gt;" style="ellipse;whiteSpace=wrap;html=1;aspect=fixed;fillColor=none;strokeWidth=2;" vertex="1" parent="1">
                    <mxGeometry x="800" y="2531" width="40" height="40" as="geometry"/>
                </mxCell>
                <mxCell id="20" value="" style="shape=flexArrow;endArrow=classic;html=1;rounded=0;strokeWidth=2;fillColor=#000000;" edge="1" parent="1">
                    <mxGeometry width="50" height="50" relative="1" as="geometry">
                        <mxPoint x="720" y="2761" as="sourcePoint"/>
                        <mxPoint x="1130" y="2760" as="targetPoint"/>
                    </mxGeometry>
                </mxCell>
                <mxCell id="21" value="" style="shape=flexArrow;endArrow=classic;html=1;rounded=0;strokeWidth=2;fillColor=#000000;" edge="1" parent="1">
                    <mxGeometry width="50" height="50" relative="1" as="geometry">
                        <mxPoint x="1135" y="2840" as="sourcePoint"/>
                        <mxPoint x="715" y="2840" as="targetPoint"/>
                    </mxGeometry>
                </mxCell>
                <mxCell id="22" value="&lt;b&gt;&lt;font style=&quot;font-size: 14px;&quot;&gt;5&lt;/font&gt;&lt;/b&gt;" style="ellipse;whiteSpace=wrap;html=1;aspect=fixed;fillColor=none;strokeWidth=2;" vertex="1" parent="1">
                    <mxGeometry x="800" y="2790" width="40" height="40" as="geometry"/>
                </mxCell>
                <mxCell id="23" value="&lt;b&gt;&lt;font style=&quot;font-size: 14px;&quot;&gt;6&lt;/font&gt;&lt;/b&gt;" style="ellipse;whiteSpace=wrap;html=1;aspect=fixed;fillColor=none;strokeWidth=2;" vertex="1" parent="1">
                    <mxGeometry x="600" y="2850" width="40" height="40" as="geometry"/>
                </mxCell>
                <mxCell id="24" value="" style="group" vertex="1" connectable="0" parent="1">
                    <mxGeometry x="450" y="3100" width="970" height="60" as="geometry"/>
                </mxCell>
                <mxCell id="25" value="User" style="rounded=1;whiteSpace=wrap;html=1;fontSize=13;fontStyle=1;strokeWidth=3;" vertex="1" parent="24">
                    <mxGeometry width="120" height="60" as="geometry"/>
                </mxCell>
                <mxCell id="26" value="API GATEWAY" style="rounded=1;whiteSpace=wrap;html=1;fontSize=13;fontStyle=1;strokeWidth=3;" vertex="1" parent="24">
                    <mxGeometry x="210" width="120" height="60" as="geometry"/>
                </mxCell>
                <mxCell id="27" value="Profile Manager" style="rounded=1;whiteSpace=wrap;html=1;fontSize=13;fontStyle=1;strokeWidth=3;" vertex="1" parent="24">
                    <mxGeometry x="410" width="120" height="60" as="geometry"/>
                </mxCell>
                <mxCell id="28" value="Wallet Manager&amp;nbsp;" style="rounded=1;whiteSpace=wrap;html=1;fontSize=13;fontStyle=1;strokeWidth=3;" vertex="1" parent="24">
                    <mxGeometry x="630" width="120" height="60" as="geometry"/>
                </mxCell>
                <mxCell id="29" value="Gift Card Manager" style="rounded=1;whiteSpace=wrap;html=1;fontSize=13;fontStyle=1;strokeWidth=3;" vertex="1" parent="24">
                    <mxGeometry x="850" width="120" height="60" as="geometry"/>
                </mxCell>
                <mxCell id="30" value="&lt;div style=&quot;line-height: 170%;&quot;&gt;&lt;p data-end=&quot;60&quot; data-start=&quot;34&quot;&gt;&lt;strong data-end=&quot;58&quot; data-start=&quot;34&quot;&gt;&lt;font style=&quot;font-size: 21px; line-height: 170%;&quot;&gt;In the above Diagram&lt;/font&gt;&lt;/strong&gt;&lt;/p&gt;&lt;p data-end=&quot;60&quot; data-start=&quot;34&quot;&gt;&lt;strong data-end=&quot;58&quot; data-start=&quot;34&quot;&gt;&lt;font style=&quot;font-size: 21px; line-height: 170%;&quot;&gt;1)&lt;/font&gt;&lt;/strong&gt;&lt;b style=&quot;background-color: transparent; color: light-dark(rgb(0, 0, 0), rgb(255, 255, 255));&quot;&gt;&lt;font style=&quot;font-size: 21px; line-height: 170%;&quot;&gt;User sends a request to API Gateway with a token in the header, requesting the last 10 transaction logs by default.&lt;/font&gt;&lt;/b&gt;&lt;/p&gt;&lt;p data-end=&quot;60&quot; data-start=&quot;34&quot;&gt;&lt;b style=&quot;background-color: transparent; color: light-dark(rgb(0, 0, 0), rgb(255, 255, 255));&quot;&gt;&lt;font style=&quot;font-size: 21px; line-height: 170%;&quot;&gt;2)&lt;/font&gt;&lt;/b&gt;&lt;b style=&quot;background-color: transparent; color: light-dark(rgb(0, 0, 0), rgb(255, 255, 255));&quot;&gt;&lt;font style=&quot;font-size: 21px; line-height: 170%;&quot;&gt;API Gateway forwards the request to Profile Manager to verify the token.&lt;/font&gt;&lt;/b&gt;&lt;/p&gt;&lt;p data-end=&quot;60&quot; data-start=&quot;34&quot;&gt;&lt;b style=&quot;background-color: transparent; color: light-dark(rgb(0, 0, 0), rgb(255, 255, 255));&quot;&gt;&lt;font style=&quot;font-size: 21px; line-height: 170%;&quot;&gt;3)&lt;/font&gt;&lt;/b&gt;&lt;b style=&quot;background-color: transparent; color: light-dark(rgb(0, 0, 0), rgb(255, 255, 255));&quot;&gt;&lt;font style=&quot;font-size: 21px; line-height: 170%;&quot;&gt;Profile Manager validates the token and returns the User ID.&lt;/font&gt;&lt;/b&gt;&lt;/p&gt;&lt;p data-end=&quot;60&quot; data-start=&quot;34&quot;&gt;&lt;b style=&quot;background-color: transparent; color: light-dark(rgb(0, 0, 0), rgb(255, 255, 255));&quot;&gt;&lt;font style=&quot;font-size: 21px; line-height: 170%;&quot;&gt;4)&lt;/font&gt;&lt;/b&gt;&lt;b style=&quot;background-color: transparent; color: light-dark(rgb(0, 0, 0), rgb(255, 255, 255));&quot;&gt;&lt;font style=&quot;font-size: 21px; line-height: 170%;&quot;&gt;API Gateway sends a request to Wallet Manager, asking for the transactions related to this User ID.&lt;/font&gt;&lt;/b&gt;&lt;/p&gt;&lt;p data-end=&quot;60&quot; data-start=&quot;34&quot;&gt;&lt;b style=&quot;background-color: transparent; color: light-dark(rgb(0, 0, 0), rgb(255, 255, 255));&quot;&gt;&lt;font style=&quot;font-size: 21px; line-height: 170%;&quot;&gt;5)&lt;/font&gt;&lt;/b&gt;&lt;b style=&quot;background-color: transparent; color: light-dark(rgb(0, 0, 0), rgb(255, 255, 255));&quot;&gt;&lt;font style=&quot;font-size: 21px; line-height: 170%;&quot;&gt;Wallet Manager finds the corresponding Wallet ID for the User ID, retrieves the transaction history, and sends the data back to API Gateway.&lt;/font&gt;&lt;/b&gt;&lt;/p&gt;&lt;p data-end=&quot;60&quot; data-start=&quot;34&quot;&gt;&lt;b style=&quot;background-color: transparent; color: light-dark(rgb(0, 0, 0), rgb(255, 255, 255));&quot;&gt;&lt;font style=&quot;font-size: 21px; line-height: 170%;&quot;&gt;6)&lt;/font&gt;&lt;/b&gt;&lt;b style=&quot;background-color: transparent; color: light-dark(rgb(0, 0, 0), rgb(255, 255, 255));&quot;&gt;&lt;font style=&quot;font-size: 21px; line-height: 170%;&quot;&gt;API Gateway responds to the User with the requested transaction logs.&lt;/font&gt;&lt;/b&gt;&lt;/p&gt;&lt;/div&gt;" style="text;html=1;align=left;verticalAlign=middle;whiteSpace=wrap;rounded=0;" vertex="1" parent="1">
                    <mxGeometry x="475" y="3500" width="865" height="30" as="geometry"/>
                </mxCell>
                <mxCell id="31" value="&lt;b&gt;&lt;font style=&quot;font-size: 15px;&quot;&gt;call/message Flow&lt;/font&gt;&lt;/b&gt;&lt;div&gt;&lt;span style=&quot;font-size: 15px;&quot;&gt;&lt;b&gt;TransactioWalletLog&lt;/b&gt;&lt;/span&gt;&lt;/div&gt;" style="text;html=1;whiteSpace=wrap;overflow=hidden;rounded=0;align=center;" vertex="1" parent="1">
                    <mxGeometry x="815" y="2320" width="190" height="50" as="geometry"/>
                </mxCell>
            </root>
        </mxGraphModel>
    </diagram>
</mxfile>